<?xml version="1.0" encoding="UTF-8"?>
<svg version="1.1" xmlns="http://www.w3.org/2000/svg" width="1274" height="1404">
<path d="M0 0 C2.69646708 1.73565697 4.90488346 3.53390247 7.21875 5.75 C13.42908675 11.48048904 20.00193082 16.63296104 26.71875 21.75 C27.44271973 22.30381348 28.16668945 22.85762695 28.91259766 23.42822266 C40.10544389 31.95326983 51.54188105 39.70350071 63.71875 46.75 C64.42257812 47.16169434 65.12640625 47.57338867 65.8515625 47.99755859 C109.06878413 73.1644139 156.2386912 88.28054639 205.71875 94.75 C206.62544434 94.87004395 207.53213867 94.99008789 208.46630859 95.11376953 C299.87262363 106.59731894 396.20131128 78.80228204 468.99609375 23.00439453 C475.62618589 17.80284497 482.04726934 12.42753976 488.21875 6.6875 C493.93552332 1.49563909 498.81981056 -1.77867858 506.79418945 -1.6315918 C513.66922162 -0.73454903 520.25269372 1.86872557 526.78125 4.125 C527.5807608 4.39699219 528.38027161 4.66898438 529.20401001 4.94921875 C551.79854179 12.63607926 573.3633185 22.10427036 594.71875 32.75 C595.5029834 33.14010254 596.2872168 33.53020508 597.09521484 33.93212891 C621.33015793 46.09602754 644.3007052 61.14956419 665.71875 77.75 C666.26305664 78.16958984 666.80736328 78.58917969 667.36816406 79.02148438 C678.66926335 87.74402298 689.62738244 96.83171591 700.18139648 106.44799805 C701.77411656 107.89298579 703.37364765 109.33053845 704.98291016 110.75708008 C711.01453188 116.11145161 716.79818013 121.6734778 722.48803711 127.38891602 C723.91212492 128.81839717 725.34153044 130.24240511 726.77148438 131.66601562 C731.96469154 136.86646071 736.95299476 142.15716089 741.71875 147.75 C742.76383397 148.94167726 743.81069006 150.1318029 744.859375 151.3203125 C809.48436098 225.03078102 848.67740642 312.65102384 885.28125 613.1875 C885.31251984 614.4340033 885.31251984 614.4340033 885.34442139 615.70568848 C886.50179801 663.31996197 885.44690296 710.88372843 883.37820816 758.4553566 C883.28319659 760.64268621 883.18910264 762.83005398 883.09506226 765.01742554 C882.94291984 768.53991964 882.78597539 772.06217488 882.62579727 775.58431244 C882.5408946 777.46287646 882.45892435 779.34157236 882.37716675 781.22027588 C881.73204942 795.08611672 880.67459614 808.890231 879.71875 822.75 C463.25875 822.75 46.79875 822.75 -382.28125 822.75 C-382.92470541 818.88926753 -383.43596856 815.4405887 -383.63842773 811.58911133 C-383.69202454 810.5962915 -383.74562134 809.60347168 -383.80084229 808.58056641 C-383.85496277 807.5085498 -383.90908325 806.4365332 -383.96484375 805.33203125 C-384.02468445 804.1932251 -384.08452515 803.05441895 -384.1461792 801.88110352 C-384.34213103 798.10847562 -384.53147848 794.33556844 -384.71875 790.5625 C-384.78405914 789.24905609 -384.84936829 787.93561218 -384.91665649 786.58236694 C-385.35939301 777.62979292 -385.78163571 768.67632647 -386.19100952 759.72216797 C-386.27766134 757.82842869 -386.36501187 755.93472141 -386.45239258 754.04101562 C-390.87536093 657.33251425 -389.15497156 560.28588492 -352.28125 337.75 C-351.93626465 336.61981445 -351.5912793 335.48962891 -351.23583984 334.32519531 C-337.46660851 289.93878429 -316.96894143 247.45053511 -291.28125 208.75 C-290.78882813 208.00782227 -290.29640625 207.26564453 -289.7890625 206.50097656 C-282.98594707 196.31039827 -275.7357842 186.47146824 -268.28125 176.75 C-267.82250488 176.14945801 -267.36375977 175.54891602 -266.89111328 174.93017578 C-261.72672464 168.18876101 -256.39554009 161.61417822 -250.84375 155.1875 C-250.36687744 154.63505615 -249.89000488 154.0826123 -249.39868164 153.51342773 C-240.07966565 142.84019686 -230.31451203 132.61627812 -220.27978516 122.61816406 C-218.51476456 120.8585652 -216.75523867 119.09359603 -214.99609375 117.328125 C-209.26089171 111.58925122 -203.49524383 105.97552689 -197.28125 100.75 C-196.27128004 99.87338036 -195.26212009 98.99582632 -194.25390625 98.1171875 C-185.5248084 90.64179901 -176.47801053 83.63903116 -167.28125 76.75 C-166.62833984 76.25967285 -165.97542969 75.7693457 -165.30273438 75.26416016 C-145.04119672 60.08870307 -123.64177406 46.61919411 -101.28125 34.75 C-100.3540918 34.25773926 -99.42693359 33.76547852 -98.47167969 33.25830078 C-75.26639866 21.05480245 -51.23500019 11.13334916 -26.34375 2.9375 C-25.69507965 2.72018219 -25.0464093 2.50286438 -24.37808228 2.27896118 C-8.167763 -3.11152876 -8.167763 -3.11152876 0 0 Z " fill="#CBCBCC" transform="translate(388.28125,581.25)"/>
<path d="M0 0 C1.00276978 -0.00067474 2.00553955 -0.00134949 3.03869629 -0.00204468 C19.04500345 0.01503629 34.67885316 0.60970767 50.5 3.25 C51.53350586 3.42160645 52.56701172 3.59321289 53.63183594 3.77001953 C105.34679275 12.67568846 154.21214885 33.78294681 195.5 66.25 C196.49515625 67.03117187 197.4903125 67.81234375 198.515625 68.6171875 C216.19770135 82.8133688 233.89052669 99.06960302 247.5 117.25 C248.44584019 118.47976266 249.39252173 119.70887848 250.33984375 120.9375 C301.5358056 187.77757822 324.95935377 271.70562471 314.47265625 355.4296875 C306.59393236 412.70727693 284.44621112 465.96482227 248.5 511.25 C247.77296875 512.17167969 247.0459375 513.09335937 246.296875 514.04296875 C233.34486923 530.18638601 218.78881166 545.47056646 202.5 558.25 C201.3702895 559.17843252 200.24280774 560.10958146 199.1171875 561.04296875 C185.19995701 572.51337862 170.12975262 582.28070209 154.5 591.25 C152.84097656 592.21292969 152.84097656 592.21292969 151.1484375 593.1953125 C106.00788189 618.36397443 53.52353803 630.52226976 2.0625 630.4375 C0.94858383 630.43609512 0.94858383 630.43609512 -0.18783569 630.43466187 C-70.32907851 630.24421617 -138.43106462 606.74312264 -193.5 563.25 C-194.98693359 562.08210937 -194.98693359 562.08210937 -196.50390625 560.890625 C-213.55722197 547.20915976 -230.18180227 531.60751247 -243.5 514.25 C-244.57216724 512.91501644 -245.64658358 511.58183757 -246.72265625 510.25 C-279.013751 469.97523503 -300.06053328 421.53723068 -309.3125 370.875 C-309.50755127 369.80773682 -309.70260254 368.74047363 -309.90356445 367.64086914 C-312.86553641 350.37206308 -313.8823071 333.18574878 -313.8125 315.6875 C-313.80976578 314.25257706 -313.80976578 314.25257706 -313.80697632 312.78866577 C-313.75690404 297.10560382 -313.07306516 281.75114868 -310.5 266.25 C-310.32839355 265.21504395 -310.15678711 264.18008789 -309.97998047 263.11376953 C-302.31431475 218.60632522 -285.82636131 174.20474029 -259.5 137.25 C-258.99984375 136.54762207 -258.4996875 135.84524414 -257.984375 135.12158203 C-250.30660952 124.39199447 -242.35908453 114.03073027 -233.5 104.25 C-232.9107373 103.59902344 -232.32147461 102.94804688 -231.71435547 102.27734375 C-204.82344238 72.74567155 -172.76247707 48.22733918 -136.53125 31.20800781 C-135.13617566 30.55004246 -133.7457469 29.88216398 -132.359375 29.20605469 C-100.9914398 13.91967018 -67.01821669 5.45772837 -32.5 1.25 C-31.68305664 1.1454248 -30.86611328 1.04084961 -30.02441406 0.93310547 C-20.06702425 -0.16736525 -10.00489706 0.00604284 0 0 Z " fill="#CBCBCC" transform="translate(635.5,-0.25)"/>
</svg>
